<?xml version="1.0" encoding="UTF-8" standalone="no"?>
<!-- Created with Inkscape (http://www.inkscape.org/) -->

<svg
   xmlns:dc="http://purl.org/dc/elements/1.1/"
   xmlns:cc="http://creativecommons.org/ns#"
   xmlns:rdf="http://www.w3.org/1999/02/22-rdf-syntax-ns#"
   xmlns:svg="http://www.w3.org/2000/svg"
   xmlns="http://www.w3.org/2000/svg"
   xmlns:sodipodi="http://sodipodi.sourceforge.net/DTD/sodipodi-0.dtd"
   xmlns:inkscape="http://www.inkscape.org/namespaces/inkscape"
   width="384"
   height="288"
   viewBox="0 0 101.6 76.199996"
   version="1.1"
   id="svg8"
   inkscape:version="0.92.2 5c3e80d, 2017-08-06"
   sodipodi:docname="movie.svg">
  <defs
     id="defs2">
    <clipPath
       clipPathUnits="userSpaceOnUse"
       id="clipPath4718">
      <rect
         style="fill:none;stroke:#fffffe;stroke-width:0.02657641;stroke-linejoin:miter;stroke-miterlimit:4;stroke-dasharray:none;stroke-opacity:1;paint-order:normal"
         id="rect4720"
         width="135.58101"
         height="98.885185"
         x="-28.10397"
         y="210.3327"
         rx="7.5083928"
         ry="7.654388" />
    </clipPath>
  </defs>
  <sodipodi:namedview
     id="base"
     pagecolor="#ffffff"
     bordercolor="#666666"
     borderopacity="1.0"
     inkscape:pageopacity="0.0"
     inkscape:pageshadow="2"
     inkscape:zoom="1.4142136"
     inkscape:cx="231.87906"
     inkscape:cy="108.90016"
     inkscape:document-units="px"
     inkscape:current-layer="layer1"
     showgrid="false"
     units="px"
     inkscape:pagecheckerboard="false"
     inkscape:snap-bbox="true"
     inkscape:bbox-paths="true"
     inkscape:bbox-nodes="true"
     inkscape:snap-bbox-edge-midpoints="true"
     inkscape:snap-bbox-midpoints="true"
     inkscape:object-paths="true"
     inkscape:snap-intersection-paths="true"
     inkscape:window-width="1366"
     inkscape:window-height="705"
     inkscape:window-x="0"
     inkscape:window-y="0"
     inkscape:window-maximized="1"
     showguides="false"
     inkscape:guide-bbox="true">
    <sodipodi:guide
       position="-35.359758,47.146341"
       orientation="1,0"
       id="guide1447"
       inkscape:locked="false" />
    <sodipodi:guide
       position="50.800001,18.207155"
       orientation="1,0"
       id="guide1534"
       inkscape:locked="false" />
  </sodipodi:namedview>
  <metadata
     id="metadata5">
    <rdf:RDF>
      <cc:Work
         rdf:about="">
        <dc:format>image/svg+xml</dc:format>
        <dc:type
           rdf:resource="http://purl.org/dc/dcmitype/StillImage" />
        <dc:title />
      </cc:Work>
    </rdf:RDF>
  </metadata>
  <g
     inkscape:label="Layer 1"
     inkscape:groupmode="layer"
     id="layer1"
     transform="translate(0,-220.80002)">
    <rect
       id="rect3876"
       width="97.366661"
       height="71.966667"
       x="2.1166682"
       y="-294.88336"
       style="fill:none;stroke:#000000;stroke-width:4.23333311;stroke-miterlimit:4;stroke-dasharray:none;stroke-opacity:1"
       transform="scale(1,-1)"
       rx="5.5719662"
       ry="7.3216162" />
    <path
       style="fill:#000000;stroke:none;stroke-width:16;stroke-linejoin:round;stroke-miterlimit:4;stroke-dasharray:none;stroke-opacity:1;paint-order:normal"
       d="M 192 68.814453 A 75.185506 75.185506 0 0 0 116.81445 144 A 75.185506 75.185506 0 0 0 192 219.18555 A 75.185506 75.185506 0 0 0 267.18555 144 A 75.185506 75.185506 0 0 0 192 68.814453 z M 192 83.888672 A 14.999999 14.999999 0 0 1 207 98.888672 A 14.999999 14.999999 0 0 1 192 113.88867 A 14.999999 14.999999 0 0 1 177 98.888672 A 14.999999 14.999999 0 0 1 192 83.888672 z M 149.0957 115.06055 A 15 15 0 0 1 164.0957 130.06055 A 15 15 0 0 1 149.0957 145.06055 A 15 15 0 0 1 134.0957 130.06055 A 15 15 0 0 1 149.0957 115.06055 z M 234.9043 115.06055 A 15 15 0 0 1 249.9043 130.06055 A 15 15 0 0 1 234.9043 145.06055 A 15 15 0 0 1 219.9043 130.06055 A 15 15 0 0 1 234.9043 115.06055 z M 192 136.48242 A 7.51855 7.51855 0 0 1 199.51758 144 A 7.51855 7.51855 0 0 1 192 151.51953 A 7.51855 7.51855 0 0 1 184.48242 144 A 7.51855 7.51855 0 0 1 192 136.48242 z M 165.48438 165.49609 A 15 15 0 0 1 180.48438 180.49609 A 15 15 0 0 1 165.48438 195.49609 A 15 15 0 0 1 150.48438 180.49609 A 15 15 0 0 1 165.48438 165.49609 z M 218.51562 165.49609 A 15 15 0 0 1 233.51562 180.49609 A 15 15 0 0 1 218.51562 195.49609 A 15 15 0 0 1 203.51562 180.49609 A 15 15 0 0 1 218.51562 165.49609 z "
       transform="matrix(0.26458333,0,0,0.26458333,0,220.80002)"
       id="path829" />
    <path
       style="fill:none;stroke:#000000;stroke-width:4.23333263;stroke-linecap:round;stroke-linejoin:miter;stroke-miterlimit:4;stroke-dasharray:none;stroke-opacity:1"
       d="m 50.800001,276.67599 c 2.568279,0 19.21836,0 27.722509,0"
       id="path1532"
       inkscape:connector-curvature="0"
       sodipodi:nodetypes="cc" />
  </g>
</svg>
