<svg enable-background="new 0 0 50 50" version="1.1" viewBox="0 0 512 288" xmlns="http://www.w3.org/2000/svg">
    <path d="m24.974 4h462.05c11.619 0 20.974 6.9882 20.974 15.669v248.66c0 8.6805-9.3543 15.669-20.974 15.669h-462.05c-11.619 0-20.974-6.9882-20.974-15.669v-248.66c0-8.6805 9.3542-15.669 20.974-15.669z" style="fill:none;stroke-width:8;stroke:#000"/>
    <path d="m216.61 36a106 106 0 0 0-106 106 106 106 0 0 0 106 106 106 106 0 0 0 106-106 106 106 0 0 0-106-106z" style="fill:none;stroke-linecap:round;stroke-width:4;stroke:#000"/>
    <path d="m261.42 238.06c83.861-47.921 75.219 29.761 140.58-32.867" style="fill:none;stroke-width:4;stroke:#000"/>
    <circle cx="216.61" cy="142" r="88" style="fill:none;stroke-linecap:round;stroke-linejoin:round;stroke-width:4;stroke:#000800"/>
    <circle cx="216.61" cy="85.254" r="20.5" style="fill:none;stroke-linecap:round;stroke-linejoin:round;stroke-width:4;stroke:#000800"/>
    <circle cx="265.76" cy="113.63" r="20.5" style="fill:none;stroke-linecap:round;stroke-linejoin:round;stroke-width:4;stroke:#000800"/>
    <circle cx="265.76" cy="170.37" r="20.5" style="fill:none;stroke-linecap:round;stroke-linejoin:round;stroke-width:4;stroke:#000800"/>
    <circle cx="216.61" cy="198.75" r="20.5" style="fill:none;stroke-linecap:round;stroke-linejoin:round;stroke-width:4;stroke:#000800"/>
    <circle cx="167.47" cy="170.37" r="20.5" style="fill:none;stroke-linecap:round;stroke-linejoin:round;stroke-width:4;stroke:#000800"/>
    <circle cx="167.46" cy="113.63" r="20.5" style="fill:none;stroke-linecap:round;stroke-linejoin:round;stroke-width:4;stroke:#000800"/>
    <circle cx="216.61" cy="141.97" r="11.5" style="fill:none;stroke-linecap:round;stroke-linejoin:round;stroke-width:4;stroke:#000800"/>
</svg>
