<?xml version="1.0" encoding="UTF-8" standalone="no"?>
<!-- Created with Inkscape (http://www.inkscape.org/) -->

<svg xmlns:dc="http://purl.org/dc/elements/1.1/" xmlns:cc="http://creativecommons.org/ns#" xmlns:rdf="http://www.w3.org/1999/02/22-rdf-syntax-ns#" xmlns:svg="http://www.w3.org/2000/svg" xmlns="http://www.w3.org/2000/svg" xmlns:sodipodi="http://sodipodi.sourceforge.net/DTD/sodipodi-0.dtd" xmlns:inkscape="http://www.inkscape.org/namespaces/inkscape" width="128" height="128" viewBox="0 0 128 128" version="1.1" id="svg8" inkscape:version="0.92.2 5c3e80d, 2017-08-06" sodipodi:docname="search.svg">
    <defs id="defs2" />
    <sodipodi:namedview id="base" pagecolor="#ffffff" bordercolor="#666666" borderopacity="1.0" inkscape:pageopacity="0.0" inkscape:pageshadow="2" inkscape:zoom="3.984375" inkscape:cx="84.7487" inkscape:cy="63.299101" inkscape:document-units="px" inkscape:current-layer="layer1" showgrid="false" units="px" inkscape:snap-bbox="true" inkscape:bbox-paths="true" inkscape:bbox-nodes="true" inkscape:snap-bbox-edge-midpoints="true" inkscape:snap-bbox-midpoints="true" inkscape:object-paths="true" inkscape:snap-intersection-paths="true" inkscape:snap-smooth-nodes="true" inkscape:snap-page="true" />
    <metadata id="metadata5">
        <rdf:RDF>
            <cc:Work rdf:about="">
                <dc:format>image/svg+xml</dc:format>
                <dc:type rdf:resource="http://purl.org/dc/dcmitype/StillImage" />
                <dc:title />
            </cc:Work>
        </rdf:RDF>
    </metadata>
    <g inkscape:label="Layer 1" inkscape:groupmode="layer" id="layer1">
        <path style="color:#000000;fill:#000000;fill-rule:evenodd;stroke-width:12;stroke-linecap:round;stroke-linejoin:round" d="M 52.000347,0 C 23.352414,-5.293587e-6 -2.1841723e-6,23.352416 -1.25e-6,52.000348 -1.8727817e-6,80.64828 23.352415,104.00071 52.000347,104.0007 c 12.168769,0 23.372367,-4.224637 32.24631,-11.267657 l 33.506083,33.504127 c 2.35044,2.35044 6.134,2.35044 8.48444,0 2.35043,-2.35043 2.35043,-6.13399 0,-8.48444 L 92.733042,84.246658 C 99.776062,75.372715 104.0007,64.169117 104.0007,52.000348 104.0007,23.352421 80.648275,1.2456068e-6 52.000347,0 Z m 0,12.00008 c 22.162604,10e-7 40.000269,17.837666 40.000268,40.000268 0,22.162602 -17.837664,40.000267 -40.000268,40.000268 C 29.837741,92.00062 12.000079,74.162954 12.000079,52.000348 12.000078,29.837743 29.83774,12.000076 52.000347,12.00008 Z" id="path11-7" inkscape:connector-curvature="0" />
    </g>
</svg>
