<svg version="1.1" viewBox="0 0 128 128" xmlns="http://www.w3.org/2000/svg">
    <path d="m52 0c-28.648-5.2936e-6 -52 23.352-52 52-6.2278e-7 28.648 23.352 52 52 52 12.169 0 23.372-4.2246 32.246-11.268l33.506 33.504c2.3504 2.3504 6.134 2.3504 8.4844 0 2.3504-2.3504 2.3504-6.134 0-8.4844l-33.504-33.506c7.043-8.8739 11.268-20.078 11.268-32.246 0-28.648-23.352-52-52-52zm0 12c22.163 1e-6 40 17.838 40 40 0 22.163-17.838 40-40 40-22.163 4e-6 -40-17.838-40-40-1e-6 -22.163 17.838-40 40-40z" style="color:#000000;fill-rule:evenodd;stroke-linecap:round;stroke-linejoin:round;stroke-width:12"/>
</svg>
